# xmcd CD database file
#
# Track frame offsets:
#	150
#	53099
#	61089
#	117923
#	119237
#	172362
#	174215
#	224549
#	253056
#	256291
#
# Disc length: 4198 seconds
#
# Revision: 0
# Processed by: cddbd v1.5.2PL0 Copyright (c) Steve Scherf et al.
# Submitted via: CDex 1.60beta1-cs1
#
DISCID=9810640a
DTITLE=Art Pepper - The Legendary 1980 recording session [CD4]
DYEAR=1900
DGENRE=Jazz
TTITLE0=Untitled #34
TTITLE1=talk, Reminiscing
TTITLE2=The Trip
TTITLE3=talk, Accident Phone
TTITLE4=I'll remember April
TTITLE5=talk, Goodbye Intro
TTITLE6=Goodbye
TTITLE7=In a Mellow Tone
TTITLE8=talk, Clarinet play the Blues
TTITLE9=Blues for Fisherman
EXTD=
EXTT0=
EXTT1=
EXTT2=
EXTT3=
EXTT4=
EXTT5=
EXTT6=
EXTT7=
EXTT8=
EXTT9=
PLAYORDER=
